<svg version="1.2" xmlns="http://www.w3.org/2000/svg" viewBox="0 0 655 128" width="655" height="128"><defs><clipPath clipPathUnits="userSpaceOnUse" id="cp1"><path d="m84.22 35.1c-0.84-4.73-2.51-9.4-5.07-13.8-11.67-20.06-37.41-26.85-57.47-15.17-20.06 11.67-26.85 37.4-15.18 57.47 3.43 5.89 8.08 10.64 13.44 14.11l72.64 50.23-7.71-85.71q-0.02-3.57-0.65-7.13z"/></clipPath></defs><style>.a{fill:#2569af}.b{fill:#69a946}.c{fill:#a0d372}.d{fill:#fff}</style><path fill-rule="evenodd" class="a" d="m147.5 60h-10.5l-7.9-12.5h-0.1v12.5h-8.5v-32.5h12.7c6.4 0 11.2 3 11.2 10 0 4.5-2.5 8.3-7.1 9.2zm-18.5-18h0.8c2.7 0 5.8-0.5 5.8-4 0-3.6-3.1-4.1-5.8-4.1h-0.8z"/><path class="a" d="m168 34.6v5.5h9.5v7.1h-9.5v5.6h10v7.2h-18.5v-32.5h18.5v7.1z"/><path class="a" d="m210.8 35.8c-1.6-1.3-3.6-2.1-5.6-2.1-1.6 0-3.7 0.9-3.7 2.7 0 1.9 2.3 2.6 3.8 3.1l2.1 0.6c4.6 1.4 8.1 3.7 8.1 8.9 0 3.3-0.8 6.6-3.4 8.8-2.5 2.1-5.9 3-9.2 3-4.1 0-8.1-1.3-11.4-3.7l3.6-6.8c2.1 1.9 4.6 3.4 7.5 3.4 2 0 4.1-1 4.1-3.3 0-2.4-3.3-3.2-5.2-3.7-5.3-1.5-8.7-2.9-8.7-9.2 0-6.6 4.6-10.9 11.2-10.9 3.2 0 7.2 1 10.1 2.7z"/><path class="a" d="m242.1 60h-8.5v-25.4h-6.9v-7.1h22.4v7.1h-7z"/><path fill-rule="evenodd" class="a" d="m267.5 54.3l-2.2 5.7h-9l12.5-32.5h9.2l12.3 32.5h-9l-2.1-5.7zm5.9-16.8h-0.1l-3.5 10.4h7z"/><path class="a" d="m328.2 27.5v18.2c0 4.2-0.2 8.4-3.4 11.5-2.7 2.7-7 3.6-10.8 3.6-3.8 0-8-0.9-10.8-3.6-3.2-3.1-3.4-7.3-3.4-11.5v-18.2h8.5v17.1c0 4.2 0.3 8.8 5.7 8.8 5.4 0 5.8-4.6 5.8-8.8v-17.1z"/><path fill-rule="evenodd" class="a" d="m369.2 60h-10.5l-8-12.5h-0.1v12.5h-8.4v-32.5h12.6c6.4 0 11.3 3 11.3 10 0 4.5-2.5 8.3-7.1 9.2zm-18.6-18h0.8c2.8 0 5.9-0.5 5.9-4 0-3.6-3.1-4.1-5.9-4.1h-0.8z"/><path fill-rule="evenodd" class="a" d="m387.3 54.3l-2.3 5.7h-8.9l12.5-32.5h9.2l12.2 32.5h-9l-2.1-5.7zm5.9-16.8h-0.1l-3.5 10.4h7.1z"/><path class="a" d="m420.2 27.5h8.4l15.5 19.8h0.1v-19.8h8.5v32.5h-8.5l-15.5-19.9h-0.1v19.9h-8.4z"/><path class="a" d="m480.8 60h-8.4v-25.4h-7v-7.1h22.4v7.1h-7z"/><path class="a" d="m509.2 55.8c0 2.7-2.3 5-5.1 5-2.8 0-5-2.3-5-5 0-2.8 2.2-5.1 5-5.1 2.8 0 5.1 2.3 5.1 5.1z"/><path class="a" d="m545 38.4c-1.7-2.4-4.5-3.6-7.4-3.6-5.2 0-8.7 4-8.7 9 0 5.1 3.6 8.8 8.8 8.8 2.8 0 5.5-1.3 7.3-3.4v10.1c-2.8 0.9-4.8 1.5-7.4 1.5-4.6 0-8.9-1.7-12.2-4.8-3.6-3.2-5.3-7.4-5.3-12.2 0-4.5 1.7-8.7 4.8-11.9 3.2-3.3 7.8-5.3 12.4-5.3 2.7 0 5.2 0.6 7.7 1.7z"/><path fill-rule="evenodd" class="a" d="m592.1 43.1c0 10.5-7.6 17.9-18 17.9-10.4 0-18-7.4-18-17.9 0-9.8 8.6-16.7 18-16.7 9.3 0 18 6.9 18 16.7zm-27.2 0.1c0 5.6 4.2 9.7 9.2 9.7 5 0 9.2-4.1 9.2-9.7 0-4.5-4.2-8.6-9.2-8.6-5 0-9.2 4.1-9.2 8.6z"/><path class="a" d="m607.1 27.5h8.3l6.6 17.3 7-17.3h8.4l4.9 32.5h-8.4l-2.4-18.7h-0.1l-7.8 18.7h-3.3l-7.5-18.7h-0.1l-2.7 18.7h-8.4z"/><path fill-rule="evenodd" class="a" d="m649.4 27.2c2.7 0 4.7 2.1 4.7 4.8 0 2.7-2 4.8-4.7 4.8-2.6 0-4.7-2.1-4.7-4.8 0-2.7 2.1-4.8 4.7-4.8zm0 0.7c-2.1 0-3.8 1.8-3.8 4.1 0 2.2 1.7 4 3.8 4 2.1 0.1 3.8-1.8 3.8-4 0-2.3-1.7-4.1-3.8-4.1zm-0.9 6.9h-0.8v-5.4c0.4 0 0.8-0.1 1.5-0.1 0.8 0 1.3 0.2 1.6 0.4q0.5 0.3 0.5 1.1c0 0.7-0.4 1.1-1 1.3 0.5 0.1 0.8 0.6 0.9 1.3 0.1 0.9 0.2 1.2 0.3 1.4h-0.9c-0.1-0.2-0.2-0.7-0.3-1.4-0.2-0.7-0.5-0.9-1.2-0.9h-0.6zm0-3h0.6c0.7 0 1.3-0.3 1.3-0.9 0-0.5-0.3-0.9-1.3-0.9q-0.4 0-0.6 0z"/><path class="b" d="m152.8 107.4h-3.3v-28.6h15.9v3h-12.6v10.4h11.9v3h-11.9z"/><path class="b" d="m172.9 107.4h-3.2v-30.4h3.2z"/><path fill-rule="evenodd" class="b" d="m193 107.4l-0.7-3.1h-0.1q-1.6 2-3.2 2.7-1.6 0.8-4 0.8-3.2 0-5-1.7-1.8-1.6-1.8-4.7 0-6.4 10.4-6.8l3.6-0.1v-1.3q0-2.5-1.1-3.7-1.1-1.2-3.4-1.2-2.7 0-6.1 1.6l-1-2.5q1.6-0.8 3.5-1.3 1.9-0.5 3.7-0.5 3.9 0 5.7 1.7 1.9 1.7 1.9 5.5v14.6zm-7.4-2.3q3.1 0 4.8-1.7 1.7-1.6 1.7-4.6v-2l-3.2 0.2q-3.9 0.1-5.6 1.2-1.7 1-1.7 3.3 0 1.7 1.1 2.7 1 0.9 2.9 0.9z"/><path class="b" d="m206.7 107.4l-8.1-21.4h3.5l4.6 12.7q1.6 4.4 1.8 5.7h0.2q0.2-1 1.3-4.3 1.2-3.2 5.2-14.1h3.4l-8.1 21.4z"/><path fill-rule="evenodd" class="b" d="m240.6 96.6q0 5.3-2.7 8.2-2.6 3-7.3 3-2.8 0-5.1-1.4-2.2-1.3-3.4-3.9-1.2-2.5-1.2-5.9 0-5.2 2.6-8.1 2.6-2.9 7.3-2.9 4.5 0 7.1 3 2.7 2.9 2.7 8zm-16.3 0q0 4.1 1.6 6.3 1.6 2.1 4.8 2.1 3.2 0 4.9-2.1 1.6-2.1 1.6-6.3 0-4-1.6-6.2-1.7-2.1-4.9-2.1-3.2 0-4.8 2.1-1.6 2.1-1.6 6.2z"/><path class="b" d="m256 85.6q1.4 0 2.6 0.2l-0.5 3q-1.3-0.3-2.3-0.3-2.6 0-4.5 2.1-1.8 2.1-1.8 5.3v11.5h-3.3v-21.4h2.7l0.4 3.9h0.1q1.2-2.1 2.9-3.2 1.7-1.1 3.7-1.1z"/><path fill-rule="evenodd" class="b" d="m286.1 107.4l-0.6-3.1h-0.2q-1.6 2-3.2 2.7-1.6 0.8-3.9 0.8-3.2 0-5-1.7-1.8-1.6-1.8-4.7 0-6.4 10.3-6.8l3.7-0.1v-1.3q0-2.5-1.1-3.7-1.1-1.2-3.5-1.2-2.7 0-6 1.6l-1-2.5q1.5-0.8 3.4-1.3 1.9-0.5 3.8-0.5 3.8 0 5.7 1.7 1.8 1.7 1.8 5.5v14.6zm-7.3-2.3q3 0 4.8-1.7 1.7-1.6 1.7-4.6v-2l-3.3 0.2q-3.8 0.1-5.5 1.2-1.7 1-1.7 3.3 0 1.7 1 2.7 1.1 0.9 3 0.9z"/><path class="b" d="m302.1 105.1q0.9 0 1.7-0.1 0.8-0.2 1.3-0.3v2.5q-0.6 0.2-1.6 0.4-1 0.2-1.8 0.2-6.3 0-6.3-6.6v-12.7h-3v-1.6l3-1.3 1.4-4.6h1.9v5h6.2v2.5h-6.2v12.6q0 1.9 0.9 2.9 0.9 1.1 2.5 1.1z"/><path class="b" d="m316.3 86h3.5l4.7 12.2q1.5 4.1 1.9 6h0.2q0.2-1 1-3.4 0.8-2.4 5.3-14.8h3.5l-9.2 24.3q-1.4 3.6-3.2 5.2-1.8 1.5-4.5 1.5-1.5 0-2.9-0.4v-2.6q1.1 0.3 2.4 0.3 3.3 0 4.8-3.8l1.2-3z"/><path fill-rule="evenodd" class="b" d="m358.4 96.6q0 5.3-2.7 8.2-2.6 3-7.3 3-2.8 0-5.1-1.4-2.2-1.3-3.4-3.9-1.2-2.5-1.2-5.9 0-5.2 2.6-8.1 2.6-2.9 7.3-2.9 4.5 0 7.1 3 2.7 2.9 2.7 8zm-16.4 0q0 4.1 1.7 6.3 1.6 2.1 4.8 2.1 3.2 0 4.8-2.1 1.7-2.1 1.7-6.3 0-4-1.7-6.2-1.6-2.1-4.8-2.1-3.2 0-4.8 2.1-1.7 2.1-1.7 6.2z"/><path class="b" d="m367.1 86v13.8q0 2.7 1.2 3.9 1.2 1.3 3.7 1.3 3.4 0 4.9-1.8 1.6-1.8 1.6-6v-11.2h3.2v21.4h-2.7l-0.4-2.9h-0.2q-1 1.6-2.8 2.4-1.7 0.9-4 0.9-3.9 0-5.9-1.9-1.9-1.9-1.9-5.9v-14z"/><path class="b" d="m398.4 85.6q1.4 0 2.5 0.2l-0.4 3q-1.4-0.3-2.4-0.3-2.6 0-4.4 2.1-1.9 2.1-1.9 5.3v11.5h-3.2v-21.4h2.7l0.3 3.9h0.2q1.2-2.1 2.9-3.2 1.6-1.1 3.7-1.1z"/><path class="b" d="m432.1 107.4h-3.2v-21.4h3.2zm-3.5-27.2q0-1.2 0.5-1.7 0.6-0.5 1.4-0.5 0.8 0 1.4 0.5 0.5 0.6 0.5 1.7 0 1-0.5 1.6-0.6 0.5-1.4 0.5-0.8 0-1.4-0.5-0.5-0.6-0.5-1.6zm-3.6 8.3h-5.5v18.9h-3.2v-18.9h-3.9v-1.5l3.9-1.2v-1.2q0-7.8 6.9-7.8 1.7 0 3.9 0.6l-0.8 2.6q-1.9-0.6-3.2-0.6-1.8 0-2.7 1.3-0.9 1.2-0.9 3.9v1.4h5.5z"/><path class="b" d="m453.6 107.4v-13.9q0-2.6-1.2-3.9-1.2-1.3-3.7-1.3-3.4 0-4.9 1.8-1.6 1.9-1.6 6v11.3h-3.2v-21.4h2.6l0.5 2.9h0.2q1-1.6 2.8-2.5 1.8-0.8 4-0.8 3.9 0 5.8 1.8 2 1.9 2 6v14z"/><path fill-rule="evenodd" class="b" d="m481 86v2l-3.9 0.5q0.5 0.7 1 1.8 0.4 1.1 0.4 2.5 0 3.1-2.2 5-2.1 1.8-5.9 1.8-0.9 0-1.8-0.1-2 1.1-2 2.7 0 0.9 0.7 1.3 0.7 0.5 2.5 0.5h3.8q3.4 0 5.3 1.4 1.9 1.5 1.9 4.3 0 3.5-2.9 5.4-2.8 1.9-8.3 1.9-4.2 0-6.5-1.6-2.2-1.6-2.2-4.4 0-2 1.2-3.4 1.3-1.4 3.5-1.9-0.8-0.4-1.4-1.2-0.5-0.8-0.5-1.8 0-1.2 0.6-2 0.6-0.9 2-1.7-1.7-0.7-2.7-2.4-1.1-1.6-1.1-3.7 0-3.5 2.1-5.4 2.2-1.9 6-1.9 1.7 0 3 0.4zm-17 25q0 1.7 1.4 2.6 1.5 0.9 4.2 0.9 4.1 0 6.1-1.2 1.9-1.3 2-3.3 0-1.8-1.1-2.5-1.1-0.6-4.1-0.6h-3.9q-2.2 0-3.4 1-1.2 1.1-1.2 3.1zm1.7-18.2q0 2.3 1.3 3.4 1.3 1.2 3.5 1.2 4.8 0 4.8-4.6 0-4.9-4.8-4.9-2.3 0-3.5 1.3-1.3 1.2-1.3 3.6z"/><path fill-rule="evenodd" class="b" d="m494.5 107.8q-4.8 0-7.5-2.9-2.7-2.9-2.7-8.1 0-5.1 2.5-8.2 2.6-3 6.8-3 4.1 0 6.4 2.6 2.4 2.7 2.4 7v2h-14.8q0.1 3.8 1.9 5.8 1.8 1.9 5.1 1.9 3.5 0 6.8-1.4v2.9q-1.7 0.7-3.2 1-1.5 0.4-3.7 0.4zm-0.9-19.5q-2.6 0-4.1 1.7-1.5 1.6-1.8 4.6h11.2q0-3.1-1.4-4.7-1.4-1.6-3.9-1.6z"/><path class="b" d="m517.7 85.6q1.4 0 2.5 0.2l-0.4 3q-1.4-0.3-2.4-0.3-2.6 0-4.4 2.1-1.9 2.1-1.9 5.3v11.5h-3.2v-21.4h2.7l0.3 3.9h0.2q1.2-2.1 2.9-3.2 1.6-1.1 3.7-1.1z"/><path class="b" d="m531.1 105.1q0.9 0 1.7-0.1 0.8-0.2 1.3-0.3v2.5q-0.6 0.2-1.6 0.4-1 0.2-1.8 0.2-6.3 0-6.3-6.6v-12.7h-3v-1.6l3-1.3 1.4-4.6h1.9v5h6.2v2.5h-6.2v12.6q0 1.9 0.9 2.9 0.9 1.1 2.5 1.1z"/><path class="b" d="m541.6 107.4h-3.3v-21.4h3.3zm-3.5-27.2q0-1.2 0.5-1.7 0.6-0.5 1.4-0.5 0.8 0 1.3 0.5 0.6 0.6 0.6 1.7 0 1-0.6 1.6-0.5 0.5-1.3 0.5-0.8 0-1.4-0.5-0.5-0.6-0.5-1.6z"/><path fill-rule="evenodd" class="b" d="m558.4 107.8q-2.1 0-3.8-0.8-1.7-0.8-2.9-2.4h-0.2q0.2 1.9 0.2 3.6v8.8h-3.2v-31h2.6l0.4 2.9h0.2q1.2-1.8 2.9-2.6 1.7-0.7 3.8-0.7 4.3 0 6.6 2.9 2.3 2.9 2.3 8.1 0 5.3-2.4 8.2-2.3 3-6.5 3zm-0.5-19.5q-3.2 0-4.7 1.8-1.5 1.9-1.5 5.8v0.7q0 4.6 1.5 6.5 1.5 1.9 4.8 1.9 2.8 0 4.4-2.2 1.5-2.3 1.5-6.2 0-4-1.5-6.1-1.6-2.2-4.5-2.2z"/><path class="b" d="m586.8 101.5q0 3-2.3 4.6-2.2 1.7-6.2 1.7-4.3 0-6.6-1.4v-3q1.5 0.8 3.3 1.2 1.7 0.5 3.4 0.5 2.5 0 3.9-0.8 1.3-0.8 1.3-2.5 0-1.3-1-2.1-1.1-0.9-4.3-2.1-3-1.2-4.2-2-1.3-0.8-1.9-1.9-0.6-1-0.6-2.5 0-2.6 2.1-4.1 2.2-1.5 5.9-1.5 3.4 0 6.7 1.4l-1.1 2.6q-3.3-1.3-5.9-1.3-2.3 0-3.4 0.7-1.2 0.7-1.2 2 0 0.9 0.4 1.5 0.5 0.6 1.4 1.1 1 0.6 3.8 1.6 3.8 1.4 5.1 2.8 1.4 1.4 1.4 3.5z"/><path class="c" d="m84.2 35.1c-0.8-4.7-2.5-9.4-5-13.8-11.7-20.1-37.5-26.9-57.5-15.2-20.1 11.7-26.9 37.4-15.2 57.5 3.4 5.9 8.1 10.6 13.4 14.1l72.7 50.2-7.7-85.7q0-3.5-0.7-7.1z"/><g clip-path="url(#cp1)"><path class="d" d="m42.4 26.5l18.3 30.4c0.6 1.1 0.4 2.5-0.7 3.1l-1 0.6c-1 0.7-2.5 0.3-3.1-0.8l-18.3-30.4c-1-1.6-3.1-2.1-4.7-1.1-1.6 1-2.2 3.1-1.2 4.7l18.3 30.3c0.7 1.1 0.3 2.6-0.7 3.2l-1 0.6c-1.1 0.7-2.6 0.3-3.3-0.8l-18.3-30.3c-0.3-0.6-1-0.8-1.5-0.5-2.7 1.7-3.6 5.2-2 7.9l14.8 24.5 5.8 9.6c1.6 2.6 4.1 4.5 7.1 5.2l8.6 2.1c1.6 0.4 2.9 1.5 3.7 2.9l40.7 75.4c1.8 3.4 4.5 6.4 7.9 8.5v-0.1c2.2 1.4 4.9 1.4 7.2 0.1l0.5-0.3c2.3-1.4 3.5-3.8 3.3-6.4-0.2-4-1.6-7.7-3.8-11l-47.8-71.1c-0.9-1.3-1.1-3-0.8-4.5l2.2-8.7c0.7-2.9 0.3-6.1-1.3-8.7l-5.8-9.6-14.7-24.5c-1.7-2.7-5.2-3.6-7.9-1.9h-0.1c-0.5 0.3-0.8 1.1-0.4 1.6z"/></g></svg>